<svg xmlns="http://www.w3.org/2000/svg" width="222" height="347" viewBox="0 0 222 347" fill="none"><path d="M0 346.951H57.8774V289.126C25.9324 289.126 0 315.006 0 346.951Z" fill="url(#paint0_linear_329_118)"></path><path d="M202.599 144.562L57.9835 144.458L57.8789 289.073C137.768 289.073 202.546 224.399 202.599 144.51V144.562Z" fill="url(#paint1_linear_329_118)"></path><path d="M115.807 144.51H57.9297V202.335C89.8747 202.335 115.807 176.455 115.807 144.51Z" fill="url(#paint2_linear_329_118)"></path><path d="M57.9814 144.511L202.597 144.615L202.701 0C122.813 0 58.0337 64.6742 57.9814 144.563V144.511Z" fill="url(#paint3_linear_329_118)"></path><path d="M144.774 144.563H202.652V86.738C170.707 86.738 144.774 112.618 144.774 144.563Z" fill="url(#paint4_linear_329_118)"></path><path d="M202.597 125.323V144.615H221.889C221.889 133.949 213.262 125.323 202.597 125.323Z" fill="url(#paint5_linear_329_118)"></path><path d="M180.954 122.865C184.939 122.865 188.169 119.635 188.169 115.65C188.169 111.665 184.939 108.435 180.954 108.435C176.97 108.435 173.739 111.665 173.739 115.65C173.739 119.635 176.97 122.865 180.954 122.865Z" fill="white"></path><defs><linearGradient id="paint0_linear_329_118" x1="28.9247" y1="347.102" x2="28.9652" y2="289.068" gradientUnits="userSpaceOnUse"><stop stop-color="#3ACFFF"></stop><stop offset="1" stop-color="#2B9AFC"></stop></linearGradient><linearGradient id="paint1_linear_329_118" x1="37.8704" y1="266.801" x2="178.872" y2="125.996" gradientUnits="userSpaceOnUse"><stop stop-color="#FDEF4F"></stop><stop offset="1" stop-color="#E7B717"></stop></linearGradient><linearGradient id="paint2_linear_329_118" x1="86.891" y1="144.963" x2="86.8512" y2="202.004" gradientUnits="userSpaceOnUse"><stop stop-color="#E2AC26"></stop><stop offset="1" stop-color="#D89042"></stop></linearGradient><linearGradient id="paint3_linear_329_118" x1="130.387" y1="-0.510231" x2="130.286" y2="143.948" gradientUnits="userSpaceOnUse"><stop stop-color="#EC6BFE"></stop><stop offset="1" stop-color="#6C6AF9"></stop></linearGradient><linearGradient id="paint4_linear_329_118" x1="202.893" y1="143.389" x2="162.559" y2="103.05" gradientUnits="userSpaceOnUse"><stop stop-color="#C96BFD"></stop><stop offset="1" stop-color="#6C6AF9"></stop></linearGradient><linearGradient id="paint5_linear_329_118" x1="222.468" y1="135.02" x2="202.705" y2="135.006" gradientUnits="userSpaceOnUse"><stop stop-color="#E2AC26"></stop><stop offset="1" stop-color="#D89042"></stop></linearGradient></defs></svg>